<svg xmlns="http://www.w3.org/2000/svg" viewBox="0 0 720 190" role="img" aria-labelledby="title desc">
  <title id="title">실꾸답연구소 Silkkudap Lab</title>
  <desc id="desc">Graphite, teal, amber road and upward arrow symbol with Korean Silkkudap Lab logotype.</desc>
  <defs>
    <linearGradient id="teal" x1="0" x2="1" y1="0" y2="1">
      <stop offset="0" stop-color="#0EA5A0"/>
      <stop offset="1" stop-color="#087A77"/>
    </linearGradient>
    <linearGradient id="graphite" x1="0" x2="1" y1="0" y2="1">
      <stop offset="0" stop-color="#1E2328"/>
      <stop offset="1" stop-color="#10161B"/>
    </linearGradient>
    <filter id="softShadow" x="-12%" y="-18%" width="130%" height="140%">
      <feDropShadow dx="0" dy="4" stdDeviation="4" flood-color="#10161B" flood-opacity=".16"/>
    </filter>
  </defs>
  <g filter="url(#softShadow)">
    <g transform="translate(34 28)">
      <path d="M94 46 38 72 0 58 56 31Z" fill="url(#graphite)"/>
      <path d="M60 33 5 59M78 40 25 67M37 42 81 57M19 51 61 65" stroke="#fff" stroke-width="2" opacity=".86"/>
      <path d="M146 34 214 70 165 110 104 74Z" fill="url(#teal)"/>
      <path d="M140 61c22 10 38 15 54 9" fill="none" stroke="#fff" stroke-width="9" stroke-linecap="round"/>
      <path d="M194 57 215 57 207 77Z" fill="#fff" transform="rotate(27 204 67)"/>
      <path d="M43 101 166 38 156 31 33 94Z" fill="#F5A623"/>
      <path d="M60 90C88 31 126 29 159 79" fill="none" stroke="#fff" stroke-width="10" stroke-linecap="round"/>
      <path d="M117 4 123 28 147 34 123 40 117 64 111 40 87 34 111 28Z" fill="#F5A623"/>
    </g>
  </g>
  <g transform="translate(300 52)">
    <text x="0" y="48" font-family="Pretendard, Malgun Gothic, Arial, sans-serif" font-weight="800" font-size="54" fill="#1E2328">실꾸답연구소</text>
    <line x1="2" y1="84" x2="74" y2="84" stroke="#0EA5A0" stroke-width="3"/>
    <text x="98" y="96" font-family="Pretendard, Arial, sans-serif" font-weight="700" font-size="34" fill="#0EA5A0">Silkkudap Lab</text>
    <line x1="330" y1="84" x2="402" y2="84" stroke="#0EA5A0" stroke-width="3"/>
    <text x="0" y="132" font-family="Pretendard, Arial, sans-serif" font-size="20" fill="#1E2328">Keep doing. Keep going. That is the answer.</text>
  </g>
</svg>
